<svg width="178" height="205" viewBox="0 0 178 205" fill="none" xmlns="http://www.w3.org/2000/svg">
<g filter="url(#filter0_d)">
<path d="M140.165 120.349C140.083 120.819 139.714 121.821 139.202 123.087C137.891 126.152 135.967 129.4 132.776 132.136C132.224 132.524 131.876 132.85 131.672 132.912C118.979 132.92 106.552 133.072 93.8594 133.081C73.332 118.06 53.0091 102.978 32.4817 87.957C24.0444 83.5754 18.0605 78.4601 16.0201 74.6157C15.1222 73.1024 14.6943 71.6713 14.6943 71.6713C13.2462 68.318 13.0037 65.2724 12.8013 63.1056C14.1903 64.0267 15.8048 64.2121 17.0315 63.8453C17.4404 63.7231 17.8493 63.6008 18.197 63.2741C19.8537 62.1106 20.0391 60.4961 20.1213 60.0261C18.9979 59.2484 14.9742 56.2197 12.8536 50.6175C12.548 49.5953 12.2423 48.573 11.9367 47.5508C10.5728 41.4996 12.4169 36.4938 13.2768 34.9003C15.9937 36.5379 20.5907 38.5043 26.6398 39.3682C31.7489 40.0678 36.0823 39.6631 39.2713 39.155C39.8846 38.9716 40.5591 38.9927 41.1725 38.8093C40.9069 38.666 40.3757 38.3793 39.7223 37.6838C39.0689 36.9883 38.2932 35.8839 37.8653 34.4527C37.214 31.5294 38.3605 29.4048 38.7083 29.0781C47.4933 33.133 54.8914 34.0391 59.6126 34.1865C78.2933 34.8373 90.3407 25.2216 100.677 31.4854C103.721 33.4708 105.599 36.0273 106.558 37.7451C109.624 36.8281 114.592 35.5655 120.724 35.9595C124.566 36.1469 135.071 37.015 141.257 44.297C144.646 48.1835 145.378 52.8647 145.987 57.137C145.987 57.137 146.027 58.0159 146.312 59.7126C155.976 63.7275 142.174 114.403 140.165 120.349Z" fill="#644133"/>
<path d="M44.7416 158.013C51.5501 177.805 53.6305 182.528 59.3299 185.946C59.861 186.233 60.1877 186.581 60.6577 186.663C63.8446 188.383 67.0736 188.754 69.1582 189.021C74.7584 189.129 85.9798 188.669 97.3296 181.934C120.173 168.2 122.303 141.059 122.53 138.095C124.492 137.954 126.72 137.956 128.683 137.815C129.888 138.123 133.444 138.841 137.206 137.271C142.277 134.864 143.795 129.51 144.328 127.569C144.779 126.098 145.866 121.541 144.439 117.513C144.072 116.286 143.236 114.977 142.051 113.995C138.641 110.783 133.694 111.371 132.672 111.677C132.282 113.353 131.666 115.764 130.377 118.154C129.373 120.013 128.309 121.668 127.122 122.913C125.854 124.629 124.401 125.732 123.297 126.507C121.621 126.117 120.211 125.871 118.74 125.42C120.523 120.209 120.649 116.163 120.325 113.587C119.597 104.45 114.41 99.7649 111.541 85.7003C111.379 84.4125 111.134 83.5947 110.951 82.9813C110.951 82.9813 110.502 82.2247 109.91 81.7336C95.3092 67.1677 78.5657 71.5058 78.5657 71.5058C70.1223 73.8077 70.2615 77.9978 63.7002 78.4005C56.5256 78.9867 54.0995 72.3622 45.2913 71.2096C39.5077 70.4889 34.58 72.6305 31.3489 74.4875C29.9456 89.1614 30.5066 101.466 31.5207 110.072C31.8453 112.648 32.1911 114.549 32.4145 116.041C34.6322 127.182 36.934 135.626 44.7416 158.013Z" fill="#FDBFA1"/>
<path d="M88.4754 121.774C86.2171 122.449 83.7022 120.708 82.8582 117.885C82.0142 115.063 83.1606 112.227 85.4189 111.552C87.6771 110.876 90.192 112.617 91.036 115.44C91.8801 118.263 90.7336 121.099 88.4754 121.774Z" fill="#333333"/>
<path d="M43.3701 116.2C41.1119 116.875 40.2141 120.323 39.3701 117.5C38.5261 114.677 42.6294 112.986 44.8876 112.311C47.1459 111.636 49.6608 113.377 50.5048 116.2C51.3488 119.022 45.6284 115.524 43.3701 116.2Z" fill="#333333"/>
<path d="M98.9763 103.265C93.0514 100.582 88.0245 99.4122 84.6732 98.6325C76.9484 97.3786 74.8829 98.6644 73.9829 99.3789C72.3874 100.747 71.2198 103.546 72.2611 104.794C73.4246 106.45 77.739 104.492 84.5869 103.558C90.147 102.787 95.2772 102.812 98.9763 103.265Z" fill="#644133"/>
<path d="M37.661 113.207C39.3294 107.655 41.4777 103.7 43.3208 101.005C46.9778 95.1409 49.1337 94.4355 50.2826 94.4608C52.1876 94.3443 54.6272 95.1513 54.9944 96.4673C55.3909 98.2597 51.5845 100.118 46.8294 103.659C42.3542 107.088 39.4205 110.709 37.661 113.207Z" fill="#644133"/>
<path d="M63.5599 143.476C59.6353 143.759 56.9258 143.219 53.3701 142.5C52.4301 142.336 51.9013 141.787 51.3701 141.5C50.9823 140.948 50.6446 140.273 50.8701 139.537C51.3211 138.066 51.1389 136.945 52.2033 135.29C54.2708 131.776 55.5417 127.833 55.9336 123.929C56.3255 120.026 56.043 116.101 55.0859 112.156C55.181 119.923 54.1316 127.586 50.2831 134.082C49.4232 135.676 48.1544 137.392 47.6824 139.537C47.3747 140.743 47.8637 142.378 48.7827 143.217C49.9061 143.995 50.8462 144.159 51.9907 144.263C55.9553 144.859 59.8798 144.576 63.5599 143.476Z" fill="#ECAB8B"/>
<path d="M88.0816 149.508C86.6084 151.285 80.532 157.779 70.2296 159.078C62.2983 160.113 56.169 157.491 53.7788 156.201C55.1196 165.155 59.7526 172.456 65.7195 173.79C73.8321 175.596 86.0018 166.389 88.0816 149.508Z" fill="white"/>
</g>
<defs>
<filter id="filter0_d" x="0.351562" y="0" width="170.266" height="204.014" filterUnits="userSpaceOnUse" color-interpolation-filters="sRGB">
<feFlood flood-opacity="0" result="BackgroundImageFix"/>
<feColorMatrix in="SourceAlpha" type="matrix" values="0 0 0 0 0 0 0 0 0 0 0 0 0 0 0 0 0 0 127 0"/>
<feOffset dy="4"/>
<feGaussianBlur stdDeviation="2"/>
<feColorMatrix type="matrix" values="0 0 0 0 0 0 0 0 0 0 0 0 0 0 0 0 0 0 0.25 0"/>
<feBlend mode="normal" in2="BackgroundImageFix" result="effect1_dropShadow"/>
<feBlend mode="normal" in="SourceGraphic" in2="effect1_dropShadow" result="shape"/>
</filter>
</defs>
</svg>
