<svg width="13" height="13" viewBox="0 0 13 13" fill="none" xmlns="http://www.w3.org/2000/svg">
<mask id="path-1-outside-1" maskUnits="userSpaceOnUse" x="-0.0117188" y="-0.0117188" width="13" height="13" fill="black">
<rect fill="white" x="-0.0117188" y="-0.0117188" width="13" height="13"/>
<path fill-rule="evenodd" clip-rule="evenodd" d="M6.20479 7.24807L10.3779 11.4211L11.4211 10.3779L7.24807 6.20479L11.4213 2.03159L10.378 0.988309L6.20479 5.1615L2.03157 0.988281L0.988281 2.03157L5.1615 6.20479L0.9884 10.3779L2.03169 11.4212L6.20479 7.24807Z"/>
</mask>
<path fill-rule="evenodd" clip-rule="evenodd" d="M6.20479 7.24807L10.3779 11.4211L11.4211 10.3779L7.24807 6.20479L11.4213 2.03159L10.378 0.988309L6.20479 5.1615L2.03157 0.988281L0.988281 2.03157L5.1615 6.20479L0.9884 10.3779L2.03169 11.4212L6.20479 7.24807Z" fill="#F9F9F9"/>
<path d="M10.3779 11.4211L10.0243 11.7747L10.3779 12.1282L10.7314 11.7747L10.3779 11.4211ZM6.20479 7.24807L6.55834 6.89452L6.20479 6.54097L5.85123 6.89452L6.20479 7.24807ZM11.4211 10.3779L11.7747 10.7314L12.1282 10.3779L11.7747 10.0243L11.4211 10.3779ZM7.24807 6.20479L6.89452 5.85123L6.54097 6.20479L6.89452 6.55834L7.24807 6.20479ZM11.4213 2.03159L11.7748 2.38515L12.1284 2.03159L11.7748 1.67804L11.4213 2.03159ZM10.378 0.988309L10.7315 0.634755L10.378 0.281202L10.0244 0.634755L10.378 0.988309ZM6.20479 5.1615L5.85123 5.51505L6.20479 5.86861L6.55834 5.51505L6.20479 5.1615ZM2.03157 0.988281L2.38512 0.634728L2.03157 0.281174L1.67801 0.634728L2.03157 0.988281ZM0.988281 2.03157L0.634728 1.67801L0.281174 2.03157L0.634728 2.38512L0.988281 2.03157ZM5.1615 6.20479L5.51505 6.55834L5.86861 6.20479L5.51505 5.85123L5.1615 6.20479ZM0.9884 10.3779L0.634847 10.0243L0.281294 10.3779L0.634847 10.7314L0.9884 10.3779ZM2.03169 11.4212L1.67813 11.7747L2.03169 12.1283L2.38524 11.7747L2.03169 11.4212ZM10.7314 11.0676L6.55834 6.89452L5.85123 7.60162L10.0243 11.7747L10.7314 11.0676ZM11.0676 10.0243L10.0243 11.0676L10.7314 11.7747L11.7747 10.7314L11.0676 10.0243ZM6.89452 6.55834L11.0676 10.7314L11.7747 10.0243L7.60162 5.85123L6.89452 6.55834ZM11.0677 1.67804L6.89452 5.85123L7.60162 6.55834L11.7748 2.38515L11.0677 1.67804ZM10.0244 1.34186L11.0677 2.38515L11.7748 1.67804L10.7315 0.634755L10.0244 1.34186ZM6.55834 5.51505L10.7315 1.34186L10.0244 0.634755L5.85123 4.80795L6.55834 5.51505ZM1.67801 1.34183L5.85123 5.51505L6.55834 4.80795L2.38512 0.634728L1.67801 1.34183ZM1.34183 2.38512L2.38512 1.34183L1.67801 0.634728L0.634728 1.67801L1.34183 2.38512ZM5.51505 5.85123L1.34183 1.67801L0.634728 2.38512L4.80795 6.55834L5.51505 5.85123ZM1.34195 10.7314L5.51505 6.55834L4.80795 5.85123L0.634847 10.0243L1.34195 10.7314ZM2.38524 11.0676L1.34195 10.0243L0.634847 10.7314L1.67813 11.7747L2.38524 11.0676ZM5.85123 6.89452L1.67813 11.0676L2.38524 11.7747L6.55834 7.60162L5.85123 6.89452Z" fill="white" mask="url(#path-1-outside-1)"/>
</svg>
