<svg width="18" height="18" viewBox="0 0 18 18" fill="none" xmlns="http://www.w3.org/2000/svg">
<path d="M17.0348 3.38595L15.4391 4.98263L12.1916 1.73324L10.9598 2.96577L14.2073 6.21515L6.24253 14.1845L2.99504 10.9352L1.76322 12.1677L5.01072 15.4171L4.21285 16.2154L4.19884 16.2014C4.11486 16.3415 3.96089 16.4535 3.79291 16.4955L0.769379 17.1678C0.727385 17.1818 0.671394 17.1818 0.629401 17.1818C0.461427 17.1818 0.307454 17.1118 0.181473 16.9997C0.0274972 16.8457 -0.0284958 16.6216 0.0134977 16.4115L0.685395 13.3862C0.727389 13.2181 0.82537 13.0781 0.979346 12.98L0.965352 12.966L13.7873 0.136558C13.9693 -0.0455194 14.2773 -0.0455194 14.4732 0.136558L17.0348 2.69966C17.2308 2.88173 17.2308 3.18987 17.0348 3.38595Z" fill="#979797"/>
</svg>
