<svg width="40" height="40" viewBox="0 0 40 40" fill="none" xmlns="http://www.w3.org/2000/svg">
<path d="M28.0348 15.3864L26.4391 16.9831L23.1916 13.7337L21.9598 14.9663L25.2073 18.2156L17.2425 26.185L13.995 22.9357L12.7632 24.1682L16.0107 27.4176L15.2128 28.2159L15.1988 28.2019C15.1149 28.3419 14.9609 28.454 14.7929 28.496L11.7694 29.1683C11.7274 29.1823 11.6714 29.1823 11.6294 29.1823C11.4614 29.1823 11.3075 29.1123 11.1815 29.0002C11.0275 28.8462 10.9715 28.6221 11.0135 28.412L11.6854 25.3867C11.7274 25.2186 11.8254 25.0786 11.9793 24.9805L11.9654 24.9665L24.7873 12.137C24.9693 11.955 25.2773 11.955 25.4732 12.137L28.0348 14.7001C28.2308 14.8822 28.2308 15.1904 28.0348 15.3864Z" fill="#5E737B"/>
<circle cx="20" cy="20" r="19" stroke="#5E737B" stroke-width="2"/>
</svg>
