<svg width="35" height="35" viewBox="0 0 35 35" fill="none" xmlns="http://www.w3.org/2000/svg">
<circle cx="17.5" cy="17.5" r="17.5" fill="#0071BA"/>
<path d="M14.5756 21.4571H19.6071V26H14.5756V21.4571ZM14.9843 15.4444L15.1886 15.2039C16.6699 15.0792 17.7086 14.8387 18.3045 14.4824C18.9005 14.1083 19.1984 13.6362 19.1984 13.0661V13.0394C19.1984 12.5762 19.0282 12.2199 18.6876 11.9705C18.3641 11.7032 17.8959 11.5696 17.2829 11.5696C16.687 11.5696 16.0655 11.7211 15.4185 12.0239C14.7714 12.3268 14.15 12.7632 13.554 13.3333L11 9.80591C11.7832 8.9864 12.7112 8.31833 13.7839 7.80169C14.8566 7.26723 16.1336 7 17.6149 7C18.5514 7 19.4113 7.13361 20.1945 7.40084C20.9777 7.65026 21.6503 8.01547 22.2122 8.49648C22.7741 8.9775 23.2083 9.5654 23.5147 10.2602C23.8382 10.955 24 11.7389 24 12.6118V12.6653C24 13.5026 23.8723 14.233 23.6169 14.8565C23.3615 15.4623 23.0124 15.9878 22.5697 16.4332C22.127 16.8608 21.5992 17.2171 20.9862 17.5021C20.3903 17.7872 19.7348 18.0188 19.0196 18.1969L18.7132 19.9072H15.6228L14.9843 15.4444Z" fill="white"/>
</svg>
