<svg width="30" height="37" viewBox="0 0 30 37" fill="none" xmlns="http://www.w3.org/2000/svg">
<path d="M5.97881 26.2832C6.02682 26.3781 6.17085 26.5679 6.3629 26.8051C6.84302 27.3744 7.46717 27.9437 8.33138 28.3233C8.47541 28.3707 8.57143 28.4182 8.61945 28.4182C11.3561 27.6116 14.0447 26.8526 16.7814 26.046C20.2382 21.539 23.6471 17.0319 27.1039 12.5249C28.6403 11.0541 29.6005 9.58342 29.7925 8.63457C29.8886 8.25503 29.8886 7.92293 29.8886 7.92293C29.9846 7.1164 29.8405 6.4522 29.7445 5.97777C29.5045 6.26243 29.1684 6.40476 28.8803 6.40476C28.7843 6.40476 28.6883 6.40476 28.5923 6.35732C28.1601 6.21499 28.0161 5.88289 27.9681 5.78801C28.1601 5.55079 28.8323 4.64938 28.9283 3.32099C28.9283 3.08377 28.9283 2.84656 28.9283 2.60935C28.8323 1.23351 28.1121 0.284656 27.8241 0C27.3439 0.52187 26.4797 1.2335 25.2314 1.80282C24.1752 2.27724 23.215 2.46702 22.4948 2.5619C22.3507 2.5619 22.2067 2.60935 22.0627 2.60935C22.1107 2.56191 22.2067 2.46701 22.3027 2.27724C22.3988 2.08747 22.4948 1.80282 22.4948 1.47072C22.4468 0.806521 22.0627 0.426978 21.9667 0.379536C20.3343 1.80282 18.7979 2.46702 17.7897 2.79912C13.8047 4.12751 10.5879 2.84656 8.76348 4.83915C8.23535 5.45591 7.9953 6.1201 7.89927 6.54708C7.1791 6.54708 6.02682 6.59453 4.73051 7.06896C3.91431 7.35361 1.70578 8.20758 0.841573 10.1527C0.361457 11.1965 0.505495 12.2402 0.649529 13.1891C0.649529 13.1891 0.697539 13.3788 0.745551 13.7584C-1.07889 15.2291 5.16261 25.1446 5.97881 26.2832Z" fill="#644133"/>
<path d="M28.976 28.2284C28.7839 32.8778 28.6399 34.0164 27.6316 35.1076C27.5356 35.2025 27.4876 35.2973 27.3916 35.3448C26.8154 35.9141 26.1433 36.1988 25.7112 36.3885C24.5109 36.7681 22.0623 37.3848 19.1816 36.6732C13.3722 35.2025 11.1637 29.5568 10.9236 28.94C10.4915 29.0349 10.0114 29.1772 9.5793 29.2721C9.33924 29.4145 8.61907 29.794 7.70685 29.6991C6.45855 29.5093 5.78638 28.4656 5.54633 28.0861C5.35428 27.8014 4.82615 26.9 4.87416 25.9511C4.87416 25.6665 4.97019 25.3344 5.16223 25.0497C5.69036 24.1483 6.79463 23.9585 7.03468 23.9585C7.22673 24.2906 7.5148 24.7651 7.9469 25.1921C8.28298 25.5242 8.61906 25.8088 8.95515 25.9986C9.33924 26.2832 9.72333 26.4256 10.0114 26.5205C10.3475 26.3307 10.6355 26.1883 10.9236 25.9986C10.2034 25.0023 9.91538 24.1483 9.81936 23.579C9.38725 21.5864 10.2034 20.258 9.91538 17.0794C9.86736 16.7947 9.86737 16.6049 9.86737 16.4626C9.86737 16.4626 9.91538 16.2728 10.0114 16.1305C12.2199 12.0979 16.1089 11.9555 16.1089 11.9555C18.0773 11.9081 18.3174 12.8095 19.7577 12.4774C21.3421 12.1453 21.4381 10.5797 23.2626 9.77318C24.4629 9.25131 25.6632 9.39364 26.4794 9.58341C27.7277 12.6197 28.3998 15.2765 28.7359 17.1742C28.8319 17.7436 28.8799 18.1705 28.9279 18.5026C29.168 21.0171 29.216 22.9623 28.976 28.2284Z" fill="#FDBFA1"/>
<path d="M17.2132 23.2944C17.7435 23.2944 18.1734 22.7634 18.1734 22.1083C18.1734 21.4533 17.7435 20.9222 17.2132 20.9222C16.6828 20.9222 16.2529 21.4533 16.2529 22.1083C16.2529 22.7634 16.6828 23.2944 17.2132 23.2944Z" fill="#333333"/>
<path d="M26.0003 20.8747C26.5306 20.8747 26.9605 20.3437 26.9605 19.6886C26.9605 19.0336 26.5306 18.5026 26.0003 18.5026C25.47 18.5026 25.04 19.0336 25.04 19.6886C25.04 20.3437 25.47 20.8747 26.0003 20.8747Z" fill="#333333"/>
<path d="M13.7578 20.0206C14.8621 19.0718 15.8703 18.5024 16.5425 18.1229C18.1269 17.3638 18.655 17.5062 18.8951 17.601C19.3272 17.7908 19.7593 18.3127 19.6152 18.6448C19.4712 19.0718 18.415 18.9294 16.8786 19.1666C15.6303 19.3564 14.526 19.6885 13.7578 20.0206Z" fill="#644133"/>
<path d="M28.3051 15.5138C27.0088 15.3714 26.0006 15.4663 25.2804 15.6086C23.7441 15.8459 23.408 16.2254 23.312 16.4626C23.1199 16.8422 23.0719 17.4115 23.312 17.6012C23.648 17.8385 24.3682 17.2217 25.5205 16.5575C26.6247 15.9407 27.633 15.6561 28.3051 15.5138Z" fill="#644133"/>
<path d="M23.9831 26.3306C24.8473 26.1408 25.6635 25.8087 26.3836 25.4291C26.5757 25.3343 26.7197 25.1919 26.8158 25.097C26.8638 24.9547 26.8638 24.8598 26.7677 24.7175C26.5757 24.4328 26.2396 24.1482 25.9035 23.8635C25.2314 23.2468 24.7032 22.4877 24.3672 21.6812C24.0311 20.8746 23.839 20.0207 23.791 19.1193C24.2711 20.7798 24.9913 22.3454 26.2396 23.484C26.5277 23.7687 26.9118 24.0533 27.1518 24.4803C27.2959 24.7175 27.2959 25.097 27.1518 25.3343C26.9598 25.5715 26.7677 25.6664 26.5277 25.7612C25.7115 26.1408 24.8473 26.3306 23.9831 26.3306Z" fill="#ECAB8B"/>
<path d="M19.0869 29.1772C19.519 29.4618 21.2474 30.4581 23.552 30.0786C25.3284 29.7939 26.4807 28.8451 26.9128 28.4181C27.2008 30.4107 26.6727 32.2609 25.4724 32.9251C23.84 33.8266 20.6233 32.6405 19.0869 29.1772Z" fill="white"/>
</svg>
