<svg width="58" height="58" viewBox="0 0 58 58" fill="none" xmlns="http://www.w3.org/2000/svg">
<path d="M29 0C26.6678 0 24.3864 0.304196 22.2063 0.811189V31.4336H32.8531C34.4248 31.4336 35.6923 30.1661 35.6923 28.5944C35.6923 27.0227 34.4248 25.7552 32.8531 25.7552H27.5297C26.465 25.7552 25.5524 24.8934 25.5524 23.778C25.5524 22.6626 26.4143 21.8007 27.5297 21.8007H32.9038C36.6049 21.8007 39.6469 24.8427 39.6469 28.5437C39.6469 32.2448 36.6049 35.2867 32.9038 35.2867H21.6486C19.8234 35.2867 18.3531 33.8164 18.3531 31.9913V2.02797C7.6049 6.28671 0 16.7815 0 29C0 38.3794 4.46154 46.6941 11.3566 52.0175V23.6766C11.3566 22.6119 12.2185 21.6993 13.3339 21.6993C14.4493 21.6993 15.3112 22.5612 15.3112 23.6766V38.6329H32.8531C38.3794 38.6329 42.8409 34.1713 42.8409 28.6451C42.8409 23.1189 38.3794 18.6573 32.8531 18.6573H27.2255C26.1608 18.6573 25.2483 17.7955 25.2483 16.6801C25.2483 15.6154 26.1101 14.7028 27.2255 14.7028H32.7517C40.4073 14.7028 46.6434 20.9388 46.6434 28.5944C46.6434 36.25 40.4073 42.486 32.7517 42.486H15.2605V54.5524C19.3671 56.7832 24.0315 58 29 58C45.021 58 58 45.021 58 29C58.0507 12.979 45.021 0 29 0ZM8.61888 17.5927C8.61888 17.9983 8.31468 18.3531 7.85839 18.3531H6.18531C5.77972 18.3531 5.42483 18.049 5.42483 17.5927V15.9196C5.42483 15.514 5.72902 15.1591 6.18531 15.1591H7.85839C8.26399 15.1591 8.61888 15.4633 8.61888 15.9196V17.5927ZM11.0017 12.8776H9.32867C8.92308 12.8776 8.56818 12.5734 8.56818 12.1171V10.4441C8.56818 10.0385 8.87238 9.68357 9.32867 9.68357H11.0017C11.4073 9.68357 11.7622 9.98776 11.7622 10.4441V12.1171C11.7622 12.5227 11.4073 12.8776 11.0017 12.8776ZM14.9056 17.5927C14.9056 17.9983 14.6014 18.3531 14.1451 18.3531H12.472C12.0664 18.3531 11.7115 18.049 11.7115 17.5927V15.9196C11.7115 15.514 12.0157 15.1591 12.472 15.1591H14.1451C14.5507 15.1591 14.9056 15.4633 14.9056 15.9196V17.5927Z" fill="#0071BA"/>
</svg>
