<svg width="245" height="187" viewBox="0 0 245 187" fill="none" xmlns="http://www.w3.org/2000/svg">
<path d="M114 0.515137C103.465 0.515137 93.1591 1.83603 83.3112 4.03753V137.008H131.406C138.505 137.008 144.231 131.504 144.231 124.679C144.231 117.855 138.505 112.351 131.406 112.351H107.358C102.549 112.351 98.4266 108.608 98.4266 103.765C98.4266 98.9219 102.32 95.1793 107.358 95.1793H131.635C148.353 95.1793 162.094 108.388 162.094 124.459C162.094 140.53 148.353 153.739 131.635 153.739H80.792C72.5472 153.739 65.9056 147.355 65.9056 139.429V9.32111C17.3531 27.8136 -17 73.3846 -17 126.441C-17 167.168 3.15384 203.273 34.3007 226.388V103.325C34.3007 98.7017 38.1941 94.739 43.2325 94.739C48.271 94.739 52.1643 98.4816 52.1643 103.325V168.269H131.406C156.369 168.269 176.523 148.896 176.523 124.899C176.523 100.903 156.369 81.5301 131.406 81.5301H105.984C101.175 81.5301 97.0524 77.7875 97.0524 72.9443C97.0524 68.3211 100.946 64.3584 105.984 64.3584H130.948C165.53 64.3584 193.699 91.4368 193.699 124.679C193.699 157.922 165.53 185 130.948 185H51.9353V237.396C70.486 247.082 91.5559 252.366 114 252.366C186.371 252.366 245 196.008 245 126.441C245.229 56.8734 186.371 0.515137 114 0.515137ZM21.9336 76.9069C21.9336 78.6681 20.5594 80.2092 18.4983 80.2092H10.9406C9.10839 80.2092 7.50524 78.8883 7.50524 76.9069V69.642C7.50524 67.8808 8.87937 66.3398 10.9406 66.3398H18.4983C20.3304 66.3398 21.9336 67.6607 21.9336 69.642V76.9069ZM32.6976 56.4331H25.1399C23.3077 56.4331 21.7045 55.1122 21.7045 53.1308V45.8659C21.7045 44.1047 23.0787 42.5636 25.1399 42.5636H32.6976C34.5297 42.5636 36.1329 43.8845 36.1329 45.8659V53.1308C36.1329 54.892 34.5297 56.4331 32.6976 56.4331ZM50.3322 76.9069C50.3322 78.6681 48.958 80.2092 46.8969 80.2092H39.3392C37.507 80.2092 35.9038 78.8883 35.9038 76.9069V69.642C35.9038 67.8808 37.278 66.3398 39.3392 66.3398H46.8969C48.729 66.3398 50.3322 67.6607 50.3322 69.642V76.9069Z" fill="#0071BA" fill-opacity="0.05"/>
</svg>
