<svg width="33" height="33" viewBox="0 0 33 33" fill="none" xmlns="http://www.w3.org/2000/svg">
<path d="M32.7093 16.0203V16.021C32.7093 24.7579 25.5026 31.8419 16.5992 31.8419C13.88 31.8419 11.3264 31.198 9.07183 30.0168V23.6713H18.7092C23.1219 23.6713 26.7221 20.14 26.7221 15.7969C26.7221 11.4538 23.1219 7.92251 18.7092 7.92251H15.6012C14.8634 7.92251 14.2891 8.51618 14.2891 9.21485C14.2891 9.94815 14.8987 10.5072 15.6012 10.5072H18.7663C21.7672 10.5072 24.1836 12.8858 24.1836 15.8249C24.1836 18.764 21.7672 21.1426 18.7663 21.1426H9.10035V13.08C9.10035 12.3468 8.49078 11.7877 7.78829 11.7877C7.05056 11.7877 6.47624 12.3814 6.47624 13.08V28.3279C2.82801 25.4157 0.489063 20.9917 0.489063 16.021C0.489063 9.45977 4.58313 3.80648 10.4112 1.41566V17.6735C10.4112 18.7956 11.331 19.694 12.4646 19.694H18.7948C20.9834 19.694 22.7872 17.9273 22.7872 15.7689C22.7872 13.6104 20.9834 11.8437 18.7948 11.8437H15.7723C15.0379 11.8437 14.4602 12.4061 14.4602 13.1361C14.4602 13.8694 15.0698 14.4284 15.7723 14.4284H18.7663C19.5431 14.4284 20.1631 15.0424 20.1631 15.7969C20.1631 16.5513 19.5431 17.1654 18.7663 17.1654H12.9783V0.608282C14.1446 0.352044 15.3597 0.2 16.5992 0.2C25.5032 0.2 32.7374 7.28447 32.7093 16.0203ZM4.70876 10.3391C5.08121 10.3391 5.33647 10.0481 5.33647 9.71901V8.79472C5.33647 8.42025 5.035 8.17459 4.70876 8.17459H3.76779C3.39535 8.17459 3.14008 8.46563 3.14008 8.79472V9.71901C3.14008 10.0935 3.44155 10.3391 3.76779 10.3391H4.70876ZM5.53567 7.3142H6.47664C6.81182 7.3142 7.10435 7.03196 7.10435 6.69407V5.76979C7.10435 5.39531 6.80288 5.14966 6.47664 5.14966H5.53567C5.16323 5.14966 4.90796 5.4407 4.90796 5.76979V6.69407C4.90796 7.06855 5.20943 7.3142 5.53567 7.3142ZM8.24452 10.3391C8.61696 10.3391 8.87223 10.0481 8.87223 9.71901V8.79472C8.87223 8.42025 8.57076 8.17459 8.24452 8.17459H7.30355C6.93111 8.17459 6.67584 8.46563 6.67584 8.79472V9.71901C6.67584 10.0935 6.97731 10.3391 7.30355 10.3391H8.24452Z" fill="white" stroke="#0071BA" stroke-width="0.4"/>
</svg>
