<svg width="40" height="40" viewBox="0 0 40 40" fill="none" xmlns="http://www.w3.org/2000/svg">
<path d="M19.9999 0C18.3916 0 16.8181 0.20979 15.3146 0.559441V21.6783H22.6573C23.7412 21.6783 24.6153 20.8042 24.6153 19.7203C24.6153 18.6364 23.7412 17.7622 22.6573 17.7622H18.986C18.2517 17.7622 17.6223 17.1678 17.6223 16.3986C17.6223 15.6294 18.2167 15.035 18.986 15.035H22.6923C25.2447 15.035 27.3426 17.1329 27.3426 19.6853C27.3426 22.2378 25.2447 24.3357 22.6923 24.3357H14.93C13.6713 24.3357 12.6573 23.3217 12.6573 22.0629V1.3986C5.24474 4.33566 0 11.5734 0 20C0 26.4685 3.07692 32.2028 7.83215 35.8741V16.3287C7.83215 15.5944 8.42655 14.965 9.19578 14.965C9.96501 14.965 10.5594 15.5594 10.5594 16.3287V26.6434H22.6573C26.4685 26.6434 29.5454 23.5664 29.5454 19.7552C29.5454 15.9441 26.4685 12.8671 22.6573 12.8671H18.7762C18.0419 12.8671 17.4125 12.2727 17.4125 11.5035C17.4125 10.7692 18.0069 10.1399 18.7762 10.1399H22.5874C27.8671 10.1399 32.1678 14.4406 32.1678 19.7203C32.1678 25 27.8671 29.3007 22.5874 29.3007H10.5244V37.6224C13.3566 39.1608 16.5734 40 19.9999 40C31.0489 40 39.9999 31.049 39.9999 20C40.0349 8.95105 31.0489 0 19.9999 0ZM5.94404 12.1329C5.94404 12.4126 5.73425 12.6573 5.41957 12.6573H4.26572C3.986 12.6573 3.74125 12.4476 3.74125 12.1329V10.979C3.74125 10.6993 3.95104 10.4545 4.26572 10.4545H5.41957C5.69929 10.4545 5.94404 10.6643 5.94404 10.979V12.1329ZM7.58739 8.88112H6.43355C6.15383 8.88112 5.90908 8.67133 5.90908 8.35664V7.2028C5.90908 6.92308 6.11887 6.67832 6.43355 6.67832H7.58739C7.86711 6.67832 8.11187 6.88811 8.11187 7.2028V8.35664C8.11187 8.63636 7.86711 8.88112 7.58739 8.88112ZM10.2797 12.1329C10.2797 12.4126 10.0699 12.6573 9.75522 12.6573H8.60138C8.32166 12.6573 8.0769 12.4476 8.0769 12.1329V10.979C8.0769 10.6993 8.28669 10.4545 8.60138 10.4545H9.75522C10.0349 10.4545 10.2797 10.6643 10.2797 10.979V12.1329Z" fill="#EDEDED"/>
</svg>
