<svg width="265" height="58" viewBox="0 0 265 58" fill="none" xmlns="http://www.w3.org/2000/svg">
<path d="M68.6465 39.9512V23.1697C68.6465 22.612 68.8493 22.1558 69.2042 21.8009C69.6098 21.3953 70.0661 21.2432 70.5731 21.2432H77.4175C79.344 21.2432 80.8143 21.6488 81.8283 22.4599C82.8423 23.3218 83.3493 24.4879 83.3493 26.0089C83.3493 26.9722 83.1465 27.7327 82.7409 28.3918C82.3353 29.0002 81.7776 29.5071 81.0678 29.862C82.0311 30.2676 82.7409 30.8253 83.2479 31.5351C83.7042 32.2449 83.9577 33.1575 83.9577 34.2729C83.9577 36.0981 83.4 37.5176 82.2339 38.5316C81.0171 39.4949 79.344 40.0019 77.164 40.0019H68.6465V39.9512ZM72.3475 28.4425H76.7584C77.7217 28.4425 78.3808 28.2904 78.837 27.9355C79.2933 27.6313 79.4961 27.1243 79.4961 26.4145C79.4961 25.7047 79.2933 25.1977 78.837 24.8935C78.4822 24.5893 77.7724 24.4372 76.7077 24.4372H72.3475V28.4425ZM72.3475 36.5544H76.9105C77.9245 36.5544 78.6849 36.3516 79.2426 35.946C79.7496 35.5911 80.0031 34.9827 80.0031 34.0701C80.0031 33.2082 79.7496 32.5491 79.2426 32.1435C78.7863 31.7886 77.9752 31.5858 76.8598 31.5858H72.3475V36.5544Z" fill="#0071BA"/>
<path d="M87.1523 39.9512V23.1697C87.1523 22.612 87.3551 22.1558 87.71 21.8009C88.1156 21.3953 88.5719 21.2432 89.0789 21.2432H100.74V24.4372H90.9548V28.4425H98.2555V29.7099C98.2555 30.2676 98.0527 30.7239 97.6978 31.0788C97.2922 31.4844 96.8359 31.6365 96.3289 31.6365H91.0055V36.453H100.79V39.9512H87.1523Z" fill="#0071BA"/>
<path d="M114.075 39.9511H110.221V32.9546L103.428 21.1924H108.143L112.097 29.2536L115.291 22.3078C115.646 21.598 116.255 21.2431 117.066 21.2431H120.159L114.075 32.9546V39.9511Z" fill="#0071BA"/>
<path d="M120.867 30.6226C120.867 27.5807 121.678 25.1471 123.25 23.3726C124.974 21.5981 127.205 20.6855 129.942 20.6855C132.68 20.6855 134.911 21.5981 136.635 23.3726C138.257 25.1978 139.068 27.5807 139.068 30.6226C139.068 33.6139 138.257 36.0474 136.635 37.8219C134.962 39.5457 132.731 40.4583 129.942 40.4583C127.103 40.4583 124.872 39.5964 123.25 37.8219C121.628 36.0981 120.867 33.6646 120.867 30.6226ZM124.72 30.6226C124.72 32.752 125.177 34.3237 126.089 35.439C127.002 36.5544 128.269 37.1121 129.942 37.1121C131.565 37.1121 132.883 36.5544 133.796 35.439C134.759 34.273 135.215 32.7013 135.215 30.6226C135.215 28.5946 134.759 26.9723 133.796 25.7555C132.832 24.6401 131.565 24.0824 129.942 24.0824C128.269 24.0824 127.002 24.6401 126.089 25.7555C125.177 26.9216 124.72 28.5439 124.72 30.6226Z" fill="#0071BA"/>
<path d="M142.262 39.9511V23.2204C142.262 22.6627 142.465 22.2064 142.819 21.8515C143.225 21.4459 143.681 21.2431 144.188 21.2431H146.267L153.872 34.1714V21.1924H157.674V40.0018H153.72L146.064 27.0735V40.0018H142.262V39.9511Z" fill="#0071BA"/>
<path d="M160.869 39.9512V23.1697C160.869 22.612 161.072 22.1558 161.427 21.8009C161.832 21.3953 162.289 21.2432 162.796 21.2432H168.17C171.06 21.2432 173.189 22.0037 174.609 23.5246C176.028 25.147 176.738 27.4792 176.738 30.6225C176.738 32.2956 176.485 33.8166 175.978 35.1348C175.42 36.5037 174.659 37.5683 173.696 38.2781C172.885 38.8865 172.023 39.3428 171.161 39.5963C170.299 39.8498 168.981 40.0019 167.207 40.0019H160.869V39.9512ZM164.672 36.5544H167.764C169.539 36.5544 170.857 36.0981 171.668 35.1348C172.479 34.2729 172.885 32.7519 172.885 30.5718C172.885 28.4425 172.479 26.9215 171.719 25.9582C171.009 24.9949 169.843 24.4879 168.221 24.4879H164.621V36.5544H164.672Z" fill="#0071BA"/>
<path d="M192.505 33.2589V39.9512H188.652V23.1697C188.652 22.612 188.855 22.1558 189.21 21.8009C189.616 21.3953 190.072 21.2432 190.579 21.2432H196.967C198.944 21.2432 200.465 21.7502 201.429 22.7641C202.443 23.7781 202.95 25.2991 202.95 27.2764C202.95 29.1523 202.443 30.6732 201.479 31.7379C200.516 32.7519 199.096 33.2589 197.221 33.2589H192.505ZM192.505 29.862H196.257C197.271 29.862 197.981 29.6592 198.437 29.203C198.894 28.7974 199.147 28.1383 199.147 27.1243C199.147 26.3131 198.944 25.6033 198.488 25.0963C197.981 24.64 197.322 24.4372 196.46 24.4372H192.505V29.862Z" fill="#0071BA"/>
<path d="M209.997 21.1924H213.039L219.832 39.9004H215.726L214.458 36.0473H207.157L205.941 39.9004H201.834L208.019 22.4092C208.476 21.6487 209.084 21.1924 209.997 21.1924ZM210.858 24.9441L208.222 32.9039H213.444L210.858 24.9441Z" fill="#0071BA"/>
<path d="M221.607 39.9512V23.1697C221.607 22.612 221.81 22.1558 222.165 21.8009C222.571 21.3953 223.027 21.2432 223.534 21.2432H230.683C232.711 21.2432 234.232 21.6995 235.195 22.5613C236.209 23.4739 236.716 24.7921 236.716 26.5159C236.716 27.682 236.462 28.6453 235.955 29.4058C235.499 30.1155 234.84 30.6732 233.877 30.9774C234.688 31.2816 235.296 31.6872 235.6 32.2956C235.905 32.8533 236.107 33.7659 236.209 35.0841L236.31 37.3148C236.31 37.5176 236.31 37.7711 236.31 38.0246C236.31 38.2781 236.31 38.5316 236.361 38.7344C236.462 39.3935 236.665 39.7991 237.02 40.0019H232.761C232.558 39.647 232.457 39.2414 232.457 38.8358C232.406 38.2781 232.356 37.8725 232.356 37.619L232.305 35.5911C232.254 34.5264 232.001 33.7152 231.646 33.2589C231.24 32.8533 230.531 32.6505 229.517 32.6505H225.41V39.9512H221.607ZM225.511 29.3551H230.024C230.987 29.3551 231.747 29.1523 232.204 28.7467C232.66 28.3411 232.913 27.7327 232.913 26.8708C232.913 26.0596 232.66 25.4005 232.204 24.9949C231.747 24.5386 231.139 24.3358 230.226 24.3358H225.511V29.3551Z" fill="#0071BA"/>
<path d="M240.264 39.9512V23.1697C240.264 22.612 240.466 22.1558 240.821 21.8009C241.227 21.3953 241.683 21.2432 242.19 21.2432H244.117V28.8988L251.418 21.2432H256.285L248.781 28.7974L256.944 39.9512H252.279L247.564 33.3096C246.753 32.2449 245.942 31.7886 245.232 32.0421C244.522 32.2956 244.168 32.7012 244.168 33.3603V39.9512H240.264Z" fill="#0071BA"/>
<path d="M259.022 17.9984H257.906V17.5928H260.593V17.9984H259.478V21.1924H259.022V17.9984Z" fill="#0071BA"/>
<path d="M264.04 19.6207C263.989 19.1138 263.989 18.5054 263.989 18.0491C263.888 18.4547 263.736 18.911 263.533 19.4179L262.874 21.1924H262.519L261.91 19.4686C261.758 18.9617 261.606 18.5054 261.505 18.0491C261.505 18.5054 261.454 19.1138 261.454 19.6207L261.353 21.1924H260.896L261.15 17.5928H261.758L262.367 19.3165C262.519 19.7728 262.62 20.1784 262.722 20.5333C262.823 20.1784 262.924 19.7728 263.127 19.3165L263.786 17.5928H264.395L264.598 21.1924H264.141L264.04 19.6207Z" fill="#0071BA"/>
<path d="M29 0C26.6678 0 24.3864 0.304196 22.2063 0.811189V31.4336H32.8531C34.4248 31.4336 35.6923 30.1661 35.6923 28.5944C35.6923 27.0227 34.4248 25.7552 32.8531 25.7552H27.5297C26.465 25.7552 25.5524 24.8934 25.5524 23.778C25.5524 22.6626 26.4143 21.8007 27.5297 21.8007H32.9038C36.6049 21.8007 39.6469 24.8427 39.6469 28.5437C39.6469 32.2448 36.6049 35.2867 32.9038 35.2867H21.6486C19.8234 35.2867 18.3531 33.8164 18.3531 31.9913V2.02797C7.6049 6.28671 0 16.7815 0 29C0 38.3794 4.46154 46.6941 11.3566 52.0175V23.6766C11.3566 22.6119 12.2185 21.6993 13.3339 21.6993C14.4493 21.6993 15.3112 22.5612 15.3112 23.6766V38.6329H32.8531C38.3794 38.6329 42.8409 34.1713 42.8409 28.6451C42.8409 23.1189 38.3794 18.6573 32.8531 18.6573H27.2255C26.1608 18.6573 25.2483 17.7955 25.2483 16.6801C25.2483 15.6154 26.1101 14.7028 27.2255 14.7028H32.7517C40.4073 14.7028 46.6434 20.9388 46.6434 28.5944C46.6434 36.25 40.4073 42.486 32.7517 42.486H15.2605V54.5524C19.3671 56.7832 24.0315 58 29 58C45.021 58 58 45.021 58 29C58.0507 12.979 45.021 0 29 0ZM8.61888 17.5927C8.61888 17.9983 8.31468 18.3531 7.85839 18.3531H6.18531C5.77972 18.3531 5.42483 18.049 5.42483 17.5927V15.9196C5.42483 15.514 5.72902 15.1591 6.18531 15.1591H7.85839C8.26399 15.1591 8.61888 15.4633 8.61888 15.9196V17.5927ZM11.0017 12.8776H9.32867C8.92308 12.8776 8.56818 12.5734 8.56818 12.1171V10.4441C8.56818 10.0385 8.87238 9.68357 9.32867 9.68357H11.0017C11.4073 9.68357 11.7622 9.98776 11.7622 10.4441V12.1171C11.7622 12.5227 11.4073 12.8776 11.0017 12.8776ZM14.9056 17.5927C14.9056 17.9983 14.6014 18.3531 14.1451 18.3531H12.472C12.0664 18.3531 11.7115 18.049 11.7115 17.5927V15.9196C11.7115 15.514 12.0157 15.1591 12.472 15.1591H14.1451C14.5507 15.1591 14.9056 15.4633 14.9056 15.9196V17.5927Z" fill="#0071BA"/>
</svg>
