<svg width="24" height="20" viewBox="0 0 24 20" fill="none" xmlns="http://www.w3.org/2000/svg">
<path fill-rule="evenodd" clip-rule="evenodd" d="M0.310547 2.25562C0.310547 1.42719 0.990172 0.755615 1.82853 0.755615H22.2676C23.1059 0.755615 23.7856 1.42719 23.7856 2.25562C23.7856 3.08404 23.1059 3.75562 22.2676 3.75562H1.82853C0.990172 3.75562 0.310547 3.08404 0.310547 2.25562ZM0.310547 10.2C0.310547 9.37154 0.990172 8.69996 1.82853 8.69996H22.2676C23.1059 8.69996 23.7856 9.37154 23.7856 10.2C23.7856 11.0284 23.1059 11.7 22.2676 11.7H1.82853C0.990172 11.7 0.310547 11.0284 0.310547 10.2ZM0.310547 18.1444C0.310547 17.316 0.990172 16.6444 1.82853 16.6444H22.2676C23.1059 16.6444 23.7856 17.316 23.7856 18.1444C23.7856 18.9728 23.1059 19.6444 22.2676 19.6444H1.82853C0.990172 19.6444 0.310547 18.9728 0.310547 18.1444Z" fill="white"/>
</svg>
