<svg width="42" height="42" viewBox="0 0 42 42" fill="none" xmlns="http://www.w3.org/2000/svg">
<path d="M30.7 13.1299H12.3C11.0235 13.1299 10.0115 14.0295 10.0115 15.1516L10 27.2816C10 28.4036 11.0235 29.3032 12.3 29.3032H30.7C31.9765 29.3032 33 28.4036 33 27.2816V15.1516C33 14.0295 31.9765 13.1299 30.7 13.1299ZM30.7 27.2816H12.3V21.2166H30.7V27.2816ZM30.7 17.1732H12.3V15.1516H30.7V17.1732Z" fill="#5E737B"/>
<path d="M31.4762 40.5664L38 40.5664C39.6569 40.5664 41 39.2233 41 37.5664L41 32.7685" stroke="#5E737B" stroke-width="2" stroke-linecap="round" stroke-linejoin="round"/>
<path d="M1 32.3357L1 38C1 39.6569 2.34315 41 4 41L9.57143 41" stroke="#5E737B" stroke-width="2" stroke-linecap="round" stroke-linejoin="round"/>
<path d="M10.5238 1.43359L4 1.43359C2.34315 1.43359 1 2.77674 1 4.43359L1 9.23145" stroke="#5E737B" stroke-width="2" stroke-linecap="round" stroke-linejoin="round"/>
<path d="M41 9.66429L41 4C41 2.34315 39.6569 1 38 1L32.4286 1" stroke="#5E737B" stroke-width="2" stroke-linecap="round" stroke-linejoin="round"/>
</svg>
