<svg width="20" height="20" viewBox="0 0 20 20" fill="none" xmlns="http://www.w3.org/2000/svg">
<path d="M9.06753 1C4.73929 1 1.21777 4.49093 1.21777 8.78158C1.21777 13.0725 4.73929 16.5632 9.06753 16.5632C13.396 16.5632 16.9173 13.0725 16.9173 8.78158C16.9173 4.49093 13.396 1 9.06753 1ZM9.06753 15.1266C5.53828 15.1266 2.66696 12.2802 2.66696 8.78162C2.66696 5.28302 5.53828 2.4366 9.06753 2.4366C12.5968 2.4366 15.4681 5.28299 15.4681 8.78158C15.4681 12.2802 12.5968 15.1266 9.06753 15.1266Z" fill="#2C4251"/>
<path fill-rule="evenodd" clip-rule="evenodd" d="M0.708008 8.78158C0.708008 4.21972 4.45272 0.5 9.06742 0.5C13.6824 0.5 17.4268 4.21973 17.4268 8.78158C17.4268 13.3437 13.6824 17.0632 9.06742 17.0632C4.45273 17.0632 0.708008 13.3437 0.708008 8.78158ZM3.17652 8.78162C3.17652 12.009 5.82465 14.6266 9.06742 14.6266C12.3102 14.6266 14.9583 12.009 14.9583 8.78158C14.9583 5.55421 12.3102 2.9366 9.06742 2.9366C5.82465 2.9366 3.17652 5.55424 3.17652 8.78162ZM1.21767 8.78158C1.21767 4.49093 4.73919 1 9.06742 1C13.3959 1 16.9172 4.49093 16.9172 8.78158C16.9172 13.0725 13.3959 16.5632 9.06742 16.5632C4.73919 16.5632 1.21767 13.0725 1.21767 8.78158ZM2.66686 8.78162C2.66686 12.2802 5.53818 15.1266 9.06742 15.1266C12.5967 15.1266 15.468 12.2802 15.468 8.78158C15.468 5.28299 12.5967 2.4366 9.06742 2.4366C5.53818 2.4366 2.66686 5.28302 2.66686 8.78162Z" fill="#2C4251"/>
<path d="M18.8307 17.4441L14.6764 13.3258C14.3933 13.0452 13.9348 13.0452 13.6518 13.3258C13.3687 13.6062 13.3687 14.0611 13.6518 14.3415L17.8061 18.4598C17.9476 18.6001 18.1329 18.6702 18.3184 18.6702C18.5037 18.6702 18.6892 18.6001 18.8307 18.4598C19.1138 18.1794 19.1138 17.7245 18.8307 17.4441Z" fill="#2C4251"/>
<path fill-rule="evenodd" clip-rule="evenodd" d="M19.1927 17.0922L15.0385 12.9741L19.1927 17.0922ZM19.1927 18.8116C18.9522 19.0499 18.635 19.1702 18.3183 19.1702C18.0013 19.1702 17.6842 19.0498 17.4438 18.8115L13.2896 14.6934C13.2895 14.6934 13.2895 14.6933 13.2895 14.6933C13.2895 14.6933 13.2894 14.6933 13.2894 14.6932C12.8098 14.218 12.8098 13.4493 13.2894 12.9741M13.6517 14.3415L17.806 18.4598C17.9475 18.6001 18.1328 18.6702 18.3183 18.6702C18.5036 18.6702 18.689 18.6001 18.8306 18.4598C19.1137 18.1794 19.1137 17.7245 18.8306 17.4441L14.6763 13.3258C14.3932 13.0452 13.9347 13.0452 13.6517 13.3258C13.3686 13.6062 13.3686 14.0611 13.6517 14.3415ZM15.0385 12.9741C14.556 12.4958 13.7721 12.4958 13.2896 12.974L15.0385 12.9741Z" fill="#2C4251"/>
</svg>
