<svg width="35" height="35" viewBox="0 0 35 35" fill="none" xmlns="http://www.w3.org/2000/svg">
<path d="M17.5 0C7.83125 0 0 7.83125 0 17.5C0 27.1687 7.83125 35 17.5 35C27.1687 35 35 27.1687 35 17.5C35 7.83125 27.1687 0 17.5 0Z" fill="#006EBD"/>
<path d="M17.0537 15C16.2597 15.0052 15.4997 15.323 14.9382 15.8845C14.3767 16.4459 14.059 17.206 14.0537 18C14.0537 19.642 15.4117 21 17.0537 21C18.6947 21 20.0537 19.642 20.0537 18C20.0537 16.359 18.6947 15 17.0537 15Z" fill="white"/>
<path d="M17.054 11C9.421 11 7.127 17.617 7.106 17.684L7 18L7.105 18.316C7.127 18.383 9.421 25 17.054 25C24.687 25 26.981 18.383 27.002 18.316L27.108 18L27.003 17.684C26.981 17.617 24.687 11 17.054 11ZM17.054 23C11.703 23 9.63 19.154 9.128 18C9.632 16.842 11.706 13 17.054 13C22.405 13 24.478 16.846 24.98 18C24.476 19.158 22.402 23 17.054 23Z" fill="white"/>
</svg>
