<svg width="35" height="35" viewBox="0 0 35 35" fill="none" xmlns="http://www.w3.org/2000/svg">
<path d="M17.5 0C7.83125 0 0 7.83125 0 17.5C0 27.1687 7.83125 35 17.5 35C27.1687 35 35 27.1687 35 17.5C35 7.83125 27.1687 0 17.5 0ZM17.5583 25.7542H9.975C9.975 20.2854 14.7729 20.2854 15.8375 18.8562L15.9542 18.2C14.4521 17.4417 13.4021 15.6187 13.4021 13.475C13.4021 10.6604 15.2396 8.37082 17.5 8.37082C19.7604 8.37082 21.5979 10.6604 21.5979 13.475C21.5979 15.5896 20.5625 17.4125 19.0896 18.1854L19.2208 18.9292C20.3875 20.2854 25.025 20.3729 25.025 25.7542H17.5583Z" fill="#0071BA"/>
</svg>
