<svg width="40" height="40" viewBox="0 0 40 40" fill="none" xmlns="http://www.w3.org/2000/svg">
<circle cx="20" cy="20" r="20" fill="#E3E3E3"/>
<path opacity="0.5" d="M28.772 17.155L27.404 13.051C27.2056 12.4535 26.8238 11.9337 26.3131 11.5655C25.8024 11.1973 25.1886 10.9994 24.559 11H15.441C14.8114 10.9994 14.1976 11.1973 13.6869 11.5655C13.1762 11.9337 12.7944 12.4535 12.596 13.051L11.228 17.155C10.8642 17.3072 10.5536 17.5636 10.3351 17.8918C10.1166 18.2201 10 18.6057 10 19V24C10 24.738 10.404 25.376 11 25.723V28C11 28.2652 11.1054 28.5196 11.2929 28.7071C11.4804 28.8946 11.7348 29 12 29H13C13.2652 29 13.5196 28.8946 13.7071 28.7071C13.8946 28.5196 14 28.2652 14 28V26H26V28C26 28.2652 26.1054 28.5196 26.2929 28.7071C26.4804 28.8946 26.7348 29 27 29H28C28.2652 29 28.5196 28.8946 28.7071 28.7071C28.8946 28.5196 29 28.2652 29 28V25.723C29.3034 25.549 29.5556 25.2981 29.7311 24.9956C29.9067 24.6932 29.9994 24.3497 30 24V19C30 18.6057 29.8834 18.2201 29.6649 17.8918C29.4464 17.5636 29.1358 17.3072 28.772 17.155ZM15.441 13H24.558C24.989 13 25.371 13.274 25.507 13.684L26.613 17H13.387L14.492 13.684C14.5583 13.4848 14.6857 13.3115 14.856 13.1888C15.0264 13.066 15.231 13 15.441 13ZM13.5 23C13.303 22.9999 13.1078 22.9611 12.9258 22.8856C12.7438 22.8101 12.5784 22.6995 12.4391 22.5602C12.2998 22.4208 12.1894 22.2553 12.114 22.0733C12.0387 21.8912 11.9999 21.696 12 21.499C12.0001 21.302 12.0389 21.1068 12.1144 20.9248C12.1899 20.7428 12.3005 20.5774 12.4398 20.4381C12.5792 20.2988 12.7447 20.1884 12.9267 20.113C13.1088 20.0377 13.304 19.9989 13.501 19.999C13.899 19.9991 14.2806 20.1573 14.5619 20.4388C14.8432 20.7203 15.0011 21.102 15.001 21.5C15.0009 21.898 14.8427 22.2796 14.5612 22.5609C14.2797 22.8422 13.898 23.0001 13.5 23ZM26.5 23C26.303 22.9999 26.1078 22.9611 25.9258 22.8856C25.7438 22.8101 25.5784 22.6995 25.4391 22.5602C25.2998 22.4208 25.1894 22.2553 25.114 22.0733C25.0387 21.8912 24.9999 21.696 25 21.499C25.0001 21.302 25.0389 21.1068 25.1144 20.9248C25.1899 20.7428 25.3005 20.5774 25.4398 20.4381C25.5792 20.2988 25.7447 20.1884 25.9267 20.113C26.1088 20.0377 26.304 19.9989 26.501 19.999C26.899 19.9991 27.2806 20.1573 27.5619 20.4388C27.8432 20.7203 28.0011 21.102 28.001 21.5C28.0009 21.898 27.8427 22.2796 27.5612 22.5609C27.2797 22.8422 26.898 23.0001 26.5 23Z" fill="#A3A3A3"/>
</svg>
