<svg width="40" height="40" viewBox="0 0 40 40" fill="none" xmlns="http://www.w3.org/2000/svg">
<circle cx="20" cy="20" r="20" fill="#019571"/>
<path d="M28.7322 17.155L27.2942 13.051C27.0856 12.4535 26.6844 11.9337 26.1475 11.5655C25.6107 11.1973 24.9655 10.9994 24.3037 11H14.7193C14.0575 10.9994 13.4123 11.1973 12.8755 11.5655C12.3386 11.9337 11.9374 12.4535 11.7288 13.051L10.2908 17.155C9.90843 17.3072 9.58188 17.5636 9.35221 17.8918C9.12254 18.2201 9 18.6057 9 19V24C9 24.738 9.42466 25.376 10.0512 25.723V28C10.0512 28.2652 10.1619 28.5196 10.359 28.7071C10.5562 28.8946 10.8235 29 11.1023 29H12.1535C12.4322 29 12.6996 28.8946 12.8967 28.7071C13.0939 28.5196 13.2046 28.2652 13.2046 28V26H25.8184V28C25.8184 28.2652 25.9292 28.5196 26.1263 28.7071C26.3234 28.8946 26.5908 29 26.8696 29H27.9207C28.1995 29 28.4669 28.8946 28.664 28.7071C28.8611 28.5196 28.9719 28.2652 28.9719 28V25.723C29.2908 25.549 29.5558 25.2981 29.7404 24.9956C29.9249 24.6932 30.0224 24.3497 30.023 24V19C30.023 18.6057 29.9005 18.2201 29.6708 17.8918C29.4411 17.5636 29.1146 17.3072 28.7322 17.155ZM14.7193 13H24.3027C24.7557 13 25.1572 13.274 25.3002 13.684L26.4628 17H12.5602L13.7218 13.684C13.7915 13.4848 13.9254 13.3115 14.1044 13.1888C14.2835 13.066 14.4986 13 14.7193 13ZM12.679 23C12.4719 22.9999 12.2668 22.9611 12.0755 22.8856C11.8841 22.8101 11.7103 22.6995 11.5639 22.5602C11.4175 22.4208 11.3014 22.2553 11.2222 22.0733C11.143 21.8912 11.1022 21.696 11.1023 21.499C11.1024 21.302 11.1432 21.1068 11.2226 20.9248C11.3019 20.7428 11.4181 20.5774 11.5646 20.4381C11.7111 20.2988 11.8851 20.1884 12.0765 20.113C12.2678 20.0377 12.473 19.9989 12.6801 19.999C13.0984 19.9991 13.4995 20.1573 13.7952 20.4388C14.0909 20.7203 14.2569 21.102 14.2568 21.5C14.2567 21.898 14.0904 22.2796 13.7945 22.5609C13.4986 22.8422 13.0973 23.0001 12.679 23ZM26.344 23C26.1369 22.9999 25.9318 22.9611 25.7404 22.8856C25.5491 22.8101 25.3753 22.6995 25.2289 22.5602C25.0824 22.4208 24.9663 22.2553 24.8871 22.0733C24.8079 21.8912 24.7672 21.696 24.7673 21.499C24.7673 21.302 24.8082 21.1068 24.8875 20.9248C24.9668 20.7428 25.0831 20.5774 25.2296 20.4381C25.3761 20.2988 25.55 20.1884 25.7414 20.113C25.9328 20.0377 26.1379 19.9989 26.345 19.999C26.7633 19.9991 27.1645 20.1573 27.4602 20.4388C27.7559 20.7203 27.9219 21.102 27.9218 21.5C27.9216 21.898 27.7553 22.2796 27.4594 22.5609C27.1635 22.8422 26.7623 23.0001 26.344 23Z" fill="white"/>
</svg>
