<svg width="35" height="35" viewBox="0 0 35 35" fill="none" xmlns="http://www.w3.org/2000/svg">
<circle cx="17.5" cy="17.5" r="17.5" fill="#0071BA"/>
<path d="M26.4171 15.0113L24.9443 9.93499C24.6085 8.77731 23.5979 8 22.4296 8H12.5704C11.4021 8 10.3915 8.77731 10.0557 9.93499L8.58286 15.0113C7.65288 15.4292 7 16.3861 7 17.5V22.9286C7 23.678 7.58768 24.2857 8.3125 24.2857H8.31258L8.3125 25.6428C8.3125 26.3923 8.9001 27 9.625 27H10.9376C11.6624 27 12.2501 26.3923 12.2501 25.6429L12.2495 24.2857H22.75L22.7499 25.6428C22.7499 26.3923 23.3375 27 24.0624 27H25.375C26.0999 27 26.6875 26.3923 26.6875 25.6429V24.2858L26.687 24.2857H26.6875C27.4123 24.2857 28 23.678 28 22.9286V17.5C28 16.3861 27.3471 15.4292 26.4171 15.0113L26.4171 15.0113ZM12.5704 10.7143H22.4295L23.6108 14.7857H11.3891L12.5704 10.7143H12.5704ZM12.25 20.8929C11.5251 20.8929 10.9375 20.2852 10.9375 19.5357C10.9375 18.7862 11.5251 18.1786 12.25 18.1786C12.9749 18.1786 13.5625 18.7862 13.5625 19.5357C13.5625 20.2852 12.9749 20.8929 12.25 20.8929ZM22.75 20.8929C22.0251 20.8929 21.4375 20.2852 21.4375 19.5357C21.4375 18.7862 22.0251 18.1786 22.75 18.1786C23.4749 18.1786 24.0625 18.7862 24.0625 19.5357C24.0625 20.2852 23.4749 20.8929 22.75 20.8929Z" fill="white"/>
</svg>
