<svg width="411" height="725" viewBox="0 0 411 725" fill="none" xmlns="http://www.w3.org/2000/svg">
<path opacity="0.4" d="M415 164.731V332H-5V96.5027H18.2L28 105.206H33V193.243H40.9V156.127H49.7L55.4 151.125H70V178.136H74.9V214.251H83.3V197.144H89.2V183.739L94.6 176.436V163.03H99.5V150.525H107.9V163.03H113.4V188.541L125.2 198.845V208.749H144.4V155.727H151.8L158 150.325H172.5V156.127H182.4V196.744H191.8V210.05H200.1V185.039H208L218.6 175.735V131.917H222.3V161.329H229.7V180.337H242.5V194.143H257.3V245.864H332.9V171.634L339.3 166.031V90H354.6V111.409H367.9V163.03L384.4 177.536V221.754H399.9V173.835H405.3V164.731H415Z" fill="#CEE5EF"/>
<path opacity="0.4" d="M414 279.871V333H-4V275.792H1.77238V239.278H12.1229V276.189H17.7957V187.243H32.3262L42.8757 176L64.1738 194.605V242.561H93.7324V272.906H137.821V252.411H150.461V269.722H158.423V226.642H180.02V275.792H185.891V295.69L201.616 281.96H226.298V265.942H232.867V281.164H248.293V242.163H261.43V271.314H273.373V188.238L308.604 218.981L318.656 227.836V291.81H346.324V261.465H354.783V254.102H369.314V261.664H389.617L410.517 279.871H414Z" fill="#B0D2E1"/>
<path d="M0 303L418 332.531V728H0V303Z" fill="#22A5DA"/>
</svg>
